<svg width="146" height="25" viewBox="0 0 146 25" fill="none" xmlns="http://www.w3.org/2000/svg">
    <path d="M28.4602 6.90909H30.2756L33.9062 13.0199H34.0597L37.6903 6.90909H39.5057L34.7756 14.6051V20H33.1903V14.6051L28.4602 6.90909ZM43.9513 20.2045C43.065 20.2045 42.2873 19.9936 41.6183 19.5717C40.9535 19.1499 40.4336 18.5597 40.0586 17.8011C39.6879 17.0426 39.5025 16.1562 39.5025 15.142C39.5025 14.1193 39.6879 13.2266 40.0586 12.4638C40.4336 11.701 40.9535 11.1087 41.6183 10.6868C42.2873 10.2649 43.065 10.054 43.9513 10.054C44.8377 10.054 45.6133 10.2649 46.2781 10.6868C46.9471 11.1087 47.467 11.701 47.8377 12.4638C48.2127 13.2266 48.4002 14.1193 48.4002 15.142C48.4002 16.1562 48.2127 17.0426 47.8377 17.8011C47.467 18.5597 46.9471 19.1499 46.2781 19.5717C45.6133 19.9936 44.8377 20.2045 43.9513 20.2045ZM43.9513 18.8494C44.6246 18.8494 45.1786 18.6768 45.6133 18.3317C46.0479 17.9865 46.3697 17.5327 46.5785 16.9702C46.7873 16.4077 46.8917 15.7983 46.8917 15.142C46.8917 14.4858 46.7873 13.8743 46.5785 13.3075C46.3697 12.7408 46.0479 12.2827 45.6133 11.9332C45.1786 11.5838 44.6246 11.4091 43.9513 11.4091C43.2781 11.4091 42.7241 11.5838 42.2894 11.9332C41.8548 12.2827 41.533 12.7408 41.3242 13.3075C41.1154 13.8743 41.011 14.4858 41.011 15.142C41.011 15.7983 41.1154 16.4077 41.3242 16.9702C41.533 17.5327 41.8548 17.9865 42.2894 18.3317C42.7241 18.6768 43.2781 18.8494 43.9513 18.8494ZM56.8904 15.9858V10.1818H58.399V20H56.8904V18.3381H56.7882C56.5581 18.8366 56.2001 19.2607 55.7143 19.6101C55.2285 19.9553 54.6149 20.1278 53.8734 20.1278C53.2598 20.1278 52.7143 19.9936 52.237 19.7251C51.7598 19.4524 51.3848 19.0433 51.112 18.4979C50.8393 17.9482 50.7029 17.2557 50.7029 16.4205V10.1818H52.2115V16.3182C52.2115 17.0341 52.4118 17.6051 52.8123 18.0312C53.2172 18.4574 53.7328 18.6705 54.3592 18.6705C54.7342 18.6705 55.1156 18.5746 55.5034 18.3828C55.8954 18.1911 56.2235 17.897 56.4877 17.5007C56.7562 17.1044 56.8904 16.5994 56.8904 15.9858ZM61.1619 20V10.1818H62.6193V11.6648H62.7216C62.9006 11.179 63.2244 10.7848 63.6932 10.4822C64.1619 10.1797 64.6903 10.0284 65.2784 10.0284C65.3892 10.0284 65.5277 10.0305 65.6939 10.0348C65.8601 10.0391 65.9858 10.0455 66.071 10.054V11.5881C66.0199 11.5753 65.9027 11.5561 65.7195 11.5305C65.5405 11.5007 65.3509 11.4858 65.1506 11.4858C64.6733 11.4858 64.2472 11.5859 63.8722 11.7862C63.5014 11.9822 63.2074 12.255 62.9901 12.6044C62.777 12.9496 62.6705 13.3437 62.6705 13.7869V20H61.1619ZM77.2939 10.1818V11.4602H72.0012V10.1818H77.2939ZM73.5865 20V8.8267C73.5865 8.2642 73.7186 7.79545 73.9828 7.42045C74.247 7.04545 74.59 6.7642 75.0119 6.5767C75.4338 6.3892 75.8791 6.29545 76.3478 6.29545C76.7186 6.29545 77.0211 6.32528 77.2555 6.38494C77.4899 6.4446 77.6646 6.5 77.7797 6.55114L77.345 7.85511C77.2683 7.82954 77.1618 7.79758 77.0254 7.75923C76.8933 7.72088 76.7186 7.7017 76.5012 7.7017C76.0027 7.7017 75.6426 7.82741 75.421 8.07884C75.2037 8.33026 75.095 8.69886 75.095 9.18466V20H73.5865ZM82.016 20.2301C81.3938 20.2301 80.8292 20.1129 80.3221 19.8786C79.815 19.6399 79.4123 19.2969 79.114 18.8494C78.8157 18.3977 78.6665 17.8523 78.6665 17.2131C78.6665 16.6506 78.7773 16.1946 78.9989 15.8452C79.2205 15.4915 79.5167 15.2145 79.8874 15.0142C80.2582 14.8139 80.6673 14.6648 81.1147 14.5668C81.5664 14.4645 82.0202 14.3835 82.4762 14.3239C83.0728 14.2472 83.5565 14.1896 83.9272 14.1513C84.3022 14.1087 84.5749 14.0384 84.7454 13.9403C84.9201 13.8423 85.0075 13.6719 85.0075 13.429V13.3778C85.0075 12.7472 84.8349 12.2571 84.4897 11.9077C84.1488 11.5582 83.631 11.3835 82.9364 11.3835C82.2163 11.3835 81.6516 11.5412 81.2425 11.8565C80.8335 12.1719 80.5458 12.5085 80.3796 12.8665L78.9478 12.3551C79.2035 11.7585 79.5444 11.294 79.9705 10.9616C80.4009 10.625 80.8697 10.3906 81.3768 10.2585C81.8881 10.1222 82.391 10.054 82.8853 10.054C83.2006 10.054 83.5629 10.0923 83.9719 10.169C84.3853 10.2415 84.7837 10.3928 85.1673 10.6229C85.555 10.853 85.8768 11.2003 86.1325 11.6648C86.3881 12.1293 86.516 12.7514 86.516 13.5312V20H85.0075V18.6705H84.9308C84.8285 18.8835 84.658 19.1115 84.4194 19.3544C84.1808 19.5973 83.8633 19.804 83.467 19.9744C83.0707 20.1449 82.587 20.2301 82.016 20.2301ZM82.2461 18.875C82.8427 18.875 83.3455 18.7578 83.7546 18.5234C84.168 18.2891 84.479 17.9865 84.6879 17.6158C84.9009 17.245 85.0075 16.8551 85.0075 16.446V15.0653C84.9435 15.142 84.8029 15.2124 84.5856 15.2763C84.3725 15.3359 84.1254 15.3892 83.8441 15.4361C83.5671 15.4787 83.2965 15.517 83.0323 15.5511C82.7724 15.581 82.5614 15.6065 82.3995 15.6278C82.0075 15.679 81.641 15.7621 81.3001 15.8771C80.9634 15.9879 80.6907 16.1562 80.4819 16.3821C80.2773 16.6037 80.1751 16.9062 80.1751 17.2898C80.1751 17.8139 80.369 18.2102 80.7567 18.4787C81.1488 18.7429 81.6452 18.875 82.2461 18.875ZM96.9462 10.1818L93.3155 20H91.7814L88.1507 10.1818H89.7871L92.4973 18.0057H92.5996L95.3098 10.1818H96.9462ZM102.574 20.2045C101.688 20.2045 100.91 19.9936 100.241 19.5717C99.5765 19.1499 99.0566 18.5597 98.6816 17.8011C98.3109 17.0426 98.1255 16.1562 98.1255 15.142C98.1255 14.1193 98.3109 13.2266 98.6816 12.4638C99.0566 11.701 99.5765 11.1087 100.241 10.6868C100.91 10.2649 101.688 10.054 102.574 10.054C103.461 10.054 104.236 10.2649 104.901 10.6868C105.57 11.1087 106.09 11.701 106.461 12.4638C106.836 13.2266 107.023 14.1193 107.023 15.142C107.023 16.1562 106.836 17.0426 106.461 17.8011C106.09 18.5597 105.57 19.1499 104.901 19.5717C104.236 19.9936 103.461 20.2045 102.574 20.2045ZM102.574 18.8494C103.248 18.8494 103.802 18.6768 104.236 18.3317C104.671 17.9865 104.993 17.5327 105.202 16.9702C105.41 16.4077 105.515 15.7983 105.515 15.142C105.515 14.4858 105.41 13.8743 105.202 13.3075C104.993 12.7408 104.671 12.2827 104.236 11.9332C103.802 11.5838 103.248 11.4091 102.574 11.4091C101.901 11.4091 101.347 11.5838 100.912 11.9332C100.478 12.2827 100.156 12.7408 99.9473 13.3075C99.7385 13.8743 99.6341 14.4858 99.6341 15.142C99.6341 15.7983 99.7385 16.4077 99.9473 16.9702C100.156 17.5327 100.478 17.9865 100.912 18.3317C101.347 18.6768 101.901 18.8494 102.574 18.8494ZM109.326 20V10.1818H110.783V11.6648H110.886C111.065 11.179 111.388 10.7848 111.857 10.4822C112.326 10.1797 112.854 10.0284 113.442 10.0284C113.553 10.0284 113.692 10.0305 113.858 10.0348C114.024 10.0391 114.15 10.0455 114.235 10.054V11.5881C114.184 11.5753 114.067 11.5561 113.884 11.5305C113.705 11.5007 113.515 11.4858 113.315 11.4858C112.837 11.4858 112.411 11.5859 112.036 11.7862C111.665 11.9822 111.371 12.255 111.154 12.6044C110.941 12.9496 110.835 13.3437 110.835 13.7869V20H109.326ZM116.023 20V10.1818H117.532V20H116.023ZM116.79 8.54545C116.496 8.54545 116.243 8.44531 116.03 8.24503C115.821 8.04474 115.716 7.80398 115.716 7.52273C115.716 7.24148 115.821 7.00071 116.03 6.80043C116.243 6.60014 116.496 6.5 116.79 6.5C117.084 6.5 117.336 6.60014 117.545 6.80043C117.758 7.00071 117.864 7.24148 117.864 7.52273C117.864 7.80398 117.758 8.04474 117.545 8.24503C117.336 8.44531 117.084 8.54545 116.79 8.54545ZM124.565 10.1818V11.4602H119.477V10.1818H124.565ZM120.96 7.82955H122.468V17.1875C122.468 17.6136 122.53 17.9332 122.653 18.1463C122.781 18.3551 122.943 18.4957 123.139 18.5682C123.339 18.6364 123.55 18.6705 123.772 18.6705C123.938 18.6705 124.075 18.6619 124.181 18.6449C124.288 18.6236 124.373 18.6065 124.437 18.5938L124.744 19.9489C124.641 19.9872 124.499 20.0256 124.315 20.0639C124.132 20.1065 123.9 20.1278 123.619 20.1278C123.192 20.1278 122.775 20.0362 122.366 19.853C121.961 19.6697 121.624 19.3906 121.356 19.0156C121.092 18.6406 120.96 18.1676 120.96 17.5966V7.82955ZM130.845 20.2045C129.899 20.2045 129.083 19.9957 128.397 19.5781C127.715 19.1562 127.189 18.5682 126.818 17.8139C126.451 17.0554 126.268 16.1733 126.268 15.1676C126.268 14.1619 126.451 13.2756 126.818 12.5085C127.189 11.7372 127.704 11.1364 128.365 10.706C129.029 10.2713 129.805 10.054 130.691 10.054C131.203 10.054 131.708 10.1392 132.206 10.3097C132.705 10.4801 133.159 10.7571 133.568 11.1406C133.977 11.5199 134.303 12.0227 134.546 12.6491C134.789 13.2756 134.91 14.0469 134.91 14.9631V15.6023H127.342V14.2983H133.376C133.376 13.7443 133.265 13.25 133.044 12.8153C132.826 12.3807 132.515 12.0376 132.11 11.7862C131.71 11.5348 131.237 11.4091 130.691 11.4091C130.091 11.4091 129.571 11.5582 129.132 11.8565C128.697 12.1506 128.363 12.5341 128.128 13.0071C127.894 13.4801 127.777 13.9872 127.777 14.5284V15.3977C127.777 16.1392 127.904 16.7678 128.16 17.2834C128.42 17.7947 128.78 18.1847 129.24 18.4531C129.701 18.7173 130.235 18.8494 130.845 18.8494C131.241 18.8494 131.599 18.794 131.919 18.6832C132.243 18.5682 132.522 18.3977 132.756 18.1719C132.99 17.9418 133.172 17.6562 133.299 17.3153L134.757 17.7244C134.603 18.2188 134.346 18.6534 133.983 19.0284C133.621 19.3991 133.174 19.6889 132.641 19.8977C132.108 20.1023 131.51 20.2045 130.845 20.2045ZM144.159 12.3807L142.804 12.7642C142.719 12.5384 142.593 12.3189 142.427 12.1058C142.265 11.8885 142.044 11.7095 141.762 11.5689C141.481 11.4283 141.121 11.358 140.682 11.358C140.081 11.358 139.581 11.4964 139.18 11.7734C138.784 12.0462 138.586 12.3935 138.586 12.8153C138.586 13.1903 138.722 13.4865 138.995 13.7038C139.267 13.9212 139.694 14.1023 140.273 14.2472L141.73 14.6051C142.608 14.8182 143.262 15.1442 143.693 15.5831C144.123 16.0178 144.338 16.5781 144.338 17.2642C144.338 17.8267 144.176 18.3295 143.853 18.7727C143.533 19.2159 143.086 19.5653 142.51 19.821C141.935 20.0767 141.266 20.2045 140.503 20.2045C139.502 20.2045 138.673 19.9872 138.017 19.5526C137.36 19.1179 136.945 18.483 136.77 17.6477L138.202 17.2898C138.338 17.8182 138.596 18.2145 138.975 18.4787C139.359 18.7429 139.86 18.875 140.478 18.875C141.181 18.875 141.739 18.7259 142.152 18.4276C142.57 18.125 142.779 17.7628 142.779 17.3409C142.779 17 142.659 16.7145 142.421 16.4844C142.182 16.25 141.816 16.0753 141.321 15.9602L139.685 15.5767C138.786 15.3636 138.125 15.0334 137.703 14.5859C137.286 14.1342 137.077 13.5696 137.077 12.892C137.077 12.3381 137.233 11.848 137.544 11.4219C137.859 10.9957 138.287 10.6612 138.828 10.4183C139.374 10.1754 139.992 10.054 140.682 10.054C141.654 10.054 142.417 10.267 142.971 10.6932C143.529 11.1193 143.925 11.6818 144.159 12.3807Z" fill="white"/>
    <path d="M19.5 21.5L12.375 17.5L5.25 21.5V5.5C5.25 4.96957 5.46448 4.46086 5.84625 4.08579C6.22802 3.71071 6.74581 3.5 7.28571 3.5H17.4643C18.0042 3.5 18.522 3.71071 18.9038 4.08579C19.2855 4.46086 19.5 4.96957 19.5 5.5V21.5Z" stroke="#E0A449" stroke-width="2" stroke-linecap="round" stroke-linejoin="round"/>
</svg>
