<svg width="86" height="25" viewBox="0 0 86 25" fill="none" xmlns="http://www.w3.org/2000/svg">
    <path d="M3 9.5L12 2.5L21 9.5V20.5C21 21.0304 20.7893 21.5391 20.4142 21.9142C20.0391 22.2893 19.5304 22.5 19 22.5H5C4.46957 22.5 3.96086 22.2893 3.58579 21.9142C3.21071 21.5391 3 21.0304 3 20.5V9.5Z" stroke="#E0A449" stroke-width="2" stroke-linecap="round" stroke-linejoin="round"/>
    <path d="M9 22.5V12.5H15V22.5" stroke="#E0A449" stroke-width="2" stroke-linecap="round" stroke-linejoin="round"/>
    <path d="M29.4091 18.5V6.86364H30.8182V12.0455H37.0227V6.86364H38.4318V18.5H37.0227V13.2955H30.8182V18.5H29.4091ZM44.6165 18.6818C43.8286 18.6818 43.1373 18.4943 42.5426 18.1193C41.9517 17.7443 41.4896 17.2197 41.1562 16.5455C40.8267 15.8712 40.6619 15.0833 40.6619 14.1818C40.6619 13.2727 40.8267 12.4792 41.1562 11.8011C41.4896 11.1231 41.9517 10.5966 42.5426 10.2216C43.1373 9.84659 43.8286 9.65909 44.6165 9.65909C45.4044 9.65909 46.0938 9.84659 46.6847 10.2216C47.2794 10.5966 47.7415 11.1231 48.071 11.8011C48.4044 12.4792 48.571 13.2727 48.571 14.1818C48.571 15.0833 48.4044 15.8712 48.071 16.5455C47.7415 17.2197 47.2794 17.7443 46.6847 18.1193C46.0938 18.4943 45.4044 18.6818 44.6165 18.6818ZM44.6165 17.4773C45.215 17.4773 45.7074 17.3239 46.0938 17.017C46.4801 16.7102 46.7661 16.3068 46.9517 15.8068C47.1373 15.3068 47.2301 14.7652 47.2301 14.1818C47.2301 13.5985 47.1373 13.0549 46.9517 12.5511C46.7661 12.0473 46.4801 11.6402 46.0938 11.3295C45.7074 11.0189 45.215 10.8636 44.6165 10.8636C44.018 10.8636 43.5256 11.0189 43.1392 11.3295C42.7528 11.6402 42.4669 12.0473 42.2812 12.5511C42.0956 13.0549 42.0028 13.5985 42.0028 14.1818C42.0028 14.7652 42.0956 15.3068 42.2812 15.8068C42.4669 16.3068 42.7528 16.7102 43.1392 17.017C43.5256 17.3239 44.018 17.4773 44.6165 17.4773ZM50.6179 18.5V9.77273H51.9134V11.1364H52.027C52.2088 10.6705 52.5024 10.3087 52.9077 10.0511C53.313 9.78977 53.7997 9.65909 54.3679 9.65909C54.9437 9.65909 55.4228 9.78977 55.8054 10.0511C56.1918 10.3087 56.4929 10.6705 56.7088 11.1364H56.7997C57.0232 10.6856 57.3584 10.3277 57.8054 10.0625C58.2524 9.79356 58.7884 9.65909 59.4134 9.65909C60.1937 9.65909 60.8319 9.90341 61.3281 10.392C61.8243 10.8769 62.0724 11.6326 62.0724 12.6591V18.5H60.7315V12.6591C60.7315 12.0152 60.5554 11.5549 60.2031 11.2784C59.8509 11.0019 59.4361 10.8636 58.9588 10.8636C58.3452 10.8636 57.8698 11.0492 57.5327 11.4205C57.1955 11.7879 57.027 12.2538 57.027 12.8182V18.5H55.6634V12.5227C55.6634 12.0265 55.5024 11.6269 55.1804 11.3239C54.8584 11.017 54.4437 10.8636 53.9361 10.8636C53.5876 10.8636 53.2618 10.9564 52.9588 11.142C52.6596 11.3277 52.4171 11.5852 52.2315 11.9148C52.0497 12.2405 51.9588 12.6174 51.9588 13.0455V18.5H50.6179ZM68.1832 18.6818C67.3423 18.6818 66.617 18.4962 66.0071 18.125C65.401 17.75 64.9332 17.2273 64.6037 16.5568C64.2779 15.8826 64.1151 15.0985 64.1151 14.2045C64.1151 13.3106 64.2779 12.5227 64.6037 11.8409C64.9332 11.1553 65.3916 10.6212 65.9787 10.2386C66.5696 9.85227 67.259 9.65909 68.0469 9.65909C68.5014 9.65909 68.9503 9.73485 69.3935 9.88636C69.8366 10.0379 70.2401 10.2841 70.6037 10.625C70.9673 10.9621 71.2571 11.4091 71.473 11.9659C71.6889 12.5227 71.7969 13.2083 71.7969 14.0227V14.5909H65.0696V13.4318H70.4332C70.4332 12.9394 70.3348 12.5 70.1378 12.1136C69.9446 11.7273 69.6681 11.4223 69.3082 11.1989C68.9522 10.9754 68.5317 10.8636 68.0469 10.8636C67.5128 10.8636 67.0507 10.9962 66.6605 11.2614C66.2741 11.5227 65.9768 11.8636 65.7685 12.2841C65.5601 12.7045 65.456 13.1553 65.456 13.6364V14.4091C65.456 15.0682 65.5696 15.6269 65.7969 16.0852C66.0279 16.5398 66.348 16.8864 66.7571 17.125C67.1662 17.3598 67.6416 17.4773 68.1832 17.4773C68.5355 17.4773 68.8537 17.428 69.1378 17.3295C69.4257 17.2273 69.6738 17.0758 69.8821 16.875C70.0904 16.6705 70.2514 16.4167 70.3651 16.1136L71.6605 16.4773C71.5241 16.9167 71.295 17.303 70.973 17.6364C70.651 17.9659 70.2533 18.2235 69.7798 18.4091C69.3063 18.5909 68.7741 18.6818 68.1832 18.6818Z" fill="white"/>
</svg>
